<svg xmlns="http://www.w3.org/2000/svg" xmlns:xlink="http://www.w3.org/1999/xlink" id="Layer_1" x="0" y="0" enable-background="new 0 0 950 950" version="1.1" viewBox="0 0 950 950" xml:space="preserve"><path fill="#f1f2f2" d="M801.012,462.181c-0.006-0.006-0.013-0.119-0.019-0.335c-0.005-0.242-0.012-0.556-0.02-0.951        c-0.011-0.864-0.026-2.084-0.046-3.653c-0.025-3.199-0.061-7.814-0.105-13.636l0.191,0.191        c-15.793,0.028-40.827,0.072-68.968,0.121c0.138-0.139-0.315,0.311,0.308-0.312v0.005v0.009v0.019v0.037v0.075v0.15v0.299        v0.598l0,1.192c0,0.793,0,1.584,0,2.372c0,1.575-0.001,3.139-0.001,4.69c-0.002,3.101-0.003,6.149-0.005,9.13l-0.305-0.305        c19.663,0.055,36.856,0.104,49.174,0.139c6.143,0.037,11.069,0.066,14.498,0.087c1.678,0.017,2.989,0.031,3.916,0.04        c0.426,0.008,0.763,0.015,1.023,0.02C800.883,462.168,801.005,462.174,801.012,462.181c0.007,0.007-0.102,0.013-0.322,0.02        c-0.25,0.005-0.575,0.011-0.986,0.02c-0.912,0.009-2.201,0.023-3.851,0.04c-3.412,0.02-8.314,0.05-14.428,0.087        c-12.371,0.035-29.638,0.083-49.386,0.139l-0.305,0.001l0-0.306c-0.002-2.982-0.003-6.03-0.005-9.13        c0-1.551-0.001-3.114-0.001-4.69c0-0.788,0-1.578,0-2.372v-1.192v-0.598l0-0.299v-0.15v-0.075v-0.037v-0.019v-0.009v-0.005        c0.624-0.625,0.176-0.173,0.316-0.313c28.141,0.049,53.175,0.093,68.968,0.121l0.192,0l-0.001,0.191        c-0.045,5.87-0.081,10.524-0.105,13.75c-0.02,1.551-0.035,2.757-0.046,3.611c-0.008,0.381-0.015,0.683-0.02,0.917        C801.025,462.087,801.018,462.187,801.012,462.181z" class="colorf1f1f2 svgShape"/><rect width="68.972" height="18.575" x="400.784" y="214.033" fill="#f1f2f2" class="colorf1f1f2 svgShape"/><path fill="#f1f2f2" d="M498.616,251.66c-0.006-0.006-0.013-0.119-0.019-0.335c-0.005-0.243-0.012-0.556-0.02-0.951        c-0.011-0.864-0.026-2.084-0.046-3.653c-0.025-3.199-0.061-7.814-0.106-13.636l0.191,0.191        c-15.793,0.028-40.827,0.072-68.968,0.121c0.138-0.139-0.315,0.311,0.308-0.312v0.005v0.009v0.019v0.037v0.075v0.15v0.299        v0.597l0,1.192c0,0.793,0,1.584,0,2.372c0,1.575-0.001,3.139-0.001,4.69c-0.002,3.101-0.004,6.149-0.005,9.13l-0.305-0.305        c19.663,0.055,36.856,0.104,49.174,0.139c6.144,0.037,11.069,0.066,14.498,0.087c1.678,0.017,2.989,0.031,3.916,0.04        c0.426,0.008,0.763,0.015,1.023,0.02C498.488,251.647,498.609,251.653,498.616,251.66s-0.102,0.013-0.322,0.02        c-0.25,0.005-0.575,0.012-0.986,0.02c-0.912,0.009-2.201,0.023-3.851,0.04c-3.412,0.02-8.314,0.05-14.428,0.087        c-12.371,0.035-29.638,0.083-49.386,0.139l-0.305,0.001l0-0.306c-0.002-2.982-0.003-6.03-0.005-9.13        c0-1.55-0.001-3.114-0.001-4.69c0-0.788,0-1.578,0-2.372v-1.192l0-0.597v-0.299v-0.15v-0.075v-0.037v-0.019v-0.009v-0.005        c0.624-0.624,0.176-0.173,0.316-0.312c28.141,0.049,53.175,0.093,68.968,0.121l0.192,0l-0.001,0.191        c-0.045,5.87-0.081,10.524-0.105,13.75c-0.02,1.551-0.035,2.757-0.046,3.611c-0.008,0.381-0.015,0.683-0.02,0.917        C498.629,251.566,498.622,251.666,498.616,251.66z" class="colorf1f1f2 svgShape"/><rect width="68.972" height="18.575" x="148.796" y="331.443" fill="#f1f2f2" class="colorf1f1f2 svgShape"/><path fill="#f1f2f2" d="M246.627 369.07c-.006-.006-.013-.119-.019-.335-.005-.243-.012-.556-.02-.951-.011-.864-.026-2.084-.046-3.653-.025-3.199-.061-7.814-.106-13.636l.191.191c-15.793.028-40.827.072-68.968.121.138-.139-.315.311.308-.312v.005.009.019.037.075.15.299.597l0 1.192c0 .793 0 1.584 0 2.372 0 1.575-.001 3.139-.001 4.69-.002 3.101-.004 6.149-.005 9.13l-.305-.305c19.663.055 36.856.104 49.174.139 6.144.037 11.069.066 14.498.087 1.678.017 2.989.031 3.916.04.426.008.763.015 1.023.02C246.499 369.057 246.621 369.063 246.627 369.07s-.102.013-.322.02c-.25.005-.575.012-.986.02-.912.009-2.201.023-3.851.04-3.412.02-8.314.05-14.428.087-12.371.035-29.638.083-49.386.139l-.305.001 0-.306c-.002-2.982-.003-6.03-.005-9.13 0-1.55-.001-3.114-.001-4.69 0-.788 0-1.578 0-2.372v-1.192l0-.597v-.299-.15-.075-.037-.019V350.5v-.005c.624-.625.176-.173.316-.312 28.141.049 53.175.093 68.968.121l.192 0-.001.191c-.045 5.87-.081 10.524-.105 13.75-.02 1.551-.035 2.757-.046 3.611-.008.381-.015.683-.02.917C246.64 368.976 246.634 369.076 246.627 369.07zM775.575 266.174c-.006-.006-.013-.119-.019-.335-.005-.243-.012-.556-.02-.951-.011-.864-.026-2.084-.046-3.653-.025-3.199-.06-7.814-.105-13.636l.191.191c-15.793.028-40.827.072-68.968.121.138-.139-.315.311.308-.312v.005.009.019.037.075.15.299.598l0 1.192c0 .793 0 1.584 0 2.372 0 1.575-.001 3.139-.001 4.69-.002 3.101-.004 6.149-.005 9.13l-.305-.305c19.663.055 36.856.104 49.174.139 6.144.037 11.069.066 14.498.087 1.678.017 2.989.031 3.916.04.426.008.763.015 1.023.02C775.447 266.16 775.568 266.167 775.575 266.174s-.102.013-.322.02c-.25.005-.575.011-.986.02-.912.009-2.201.023-3.851.04-3.412.021-8.314.05-14.428.087-12.371.035-29.639.083-49.386.139l-.305.001 0-.306c-.002-2.982-.003-6.03-.005-9.13 0-1.55-.001-3.114-.001-4.69 0-.788 0-1.578 0-2.372l0-1.192v-.598-.299-.15-.075-.037-.019-.009-.005c.624-.625.176-.173.316-.313 28.141.049 53.175.093 68.968.121l.193 0-.001.191c-.045 5.871-.081 10.524-.105 13.75-.02 1.551-.035 2.756-.046 3.611-.008.381-.015.683-.02.917C775.588 266.079 775.581 266.18 775.575 266.174z" class="colorf1f1f2 svgShape"/><path fill="#f1f2f2" d="M783.257,284.749c-0.008-0.008-0.017-0.128-0.025-0.354c-0.007-0.264-0.016-0.588-0.026-0.987        c-0.015-0.91-0.034-2.157-0.059-3.732c-0.03-3.255-0.073-7.859-0.126-13.502l0.236,0.236        c-9.18,0.02-21.266,0.047-34.483,0.076c-0.281,0.278,0.377-0.38,0.31-0.31v0.005v0.01v0.019v0.038v0.077v0.154v0.307l0,0.613        l0,1.22c0,0.811-0.001,1.617-0.001,2.418c-0.001,1.601-0.003,3.181-0.004,4.735c-0.005,3.107-0.01,6.11-0.015,8.977        l-0.292-0.292c10.013,0.057,18.582,0.106,24.713,0.141c3.02,0.034,5.436,0.061,7.158,0.08        c0.801,0.015,1.439,0.027,1.926,0.036C783.01,284.725,783.245,284.737,783.257,284.749c0.012,0.012-0.2,0.023-0.62,0.035        c-0.472,0.009-1.091,0.021-1.867,0.036c-1.706,0.019-4.1,0.046-7.092,0.08c-6.179,0.035-14.815,0.084-24.908,0.141        l-0.292,0.002l0-0.294c-0.005-2.867-0.01-5.87-0.015-8.977c-0.001-1.554-0.003-3.134-0.004-4.735        c0-0.801-0.001-1.607-0.001-2.418l0-1.22l0-0.613v-0.307v-0.154v-0.077v-0.038v-0.019v-0.01v-0.005        c-0.068,0.066,0.591-0.594,0.315-0.314c13.217,0.029,25.304,0.055,34.483,0.076l0.239,0.001l-0.002,0.236        c-0.053,5.705-0.096,10.358-0.126,13.648c-0.025,1.553-0.045,2.782-0.059,3.679c-0.011,0.381-0.019,0.691-0.026,0.944        C783.274,284.654,783.266,284.757,783.257,284.749z" class="colorf1f1f2 svgShape"/><rect width="68.972" height="18.575" x="534.923" y="498.375" fill="#ececec" class="colorececec svgShape"/><path fill="#f1f2f2" d="M632.754 536.002c-.006-.006-.013-.119-.019-.335-.005-.243-.012-.556-.02-.951-.011-.864-.026-2.084-.047-3.653-.025-3.199-.06-7.814-.105-13.636l.191.191c-15.793.028-40.827.072-68.968.121.138-.139-.315.311.308-.312v.005.009.019.037.075.15.299.597l0 1.192c0 .793 0 1.584 0 2.372 0 1.575-.001 3.139-.001 4.69-.002 3.101-.004 6.149-.005 9.13l-.305-.305c19.663.055 36.856.104 49.174.139 6.144.037 11.069.066 14.498.087 1.678.017 2.989.03 3.916.04.426.008.763.015 1.023.02C632.626 535.988 632.748 535.995 632.754 536.002s-.102.013-.322.02c-.25.005-.575.012-.986.02-.912.009-2.201.023-3.851.04-3.412.021-8.314.05-14.428.087-12.371.035-29.638.083-49.386.139l-.305.001 0-.306c-.002-2.982-.003-6.029-.005-9.13 0-1.55-.001-3.114-.001-4.69 0-.788 0-1.578 0-2.372l0-1.192v-.597-.299-.15-.075-.037-.019-.009-.005c.624-.625.176-.173.316-.313 28.141.049 53.175.093 68.968.121l.193 0-.001.191c-.045 5.87-.081 10.524-.105 13.75-.02 1.551-.035 2.757-.046 3.611-.008.381-.015.683-.02.917C632.767 535.908 632.761 536.008 632.754 536.002zM274.147 278.592c-.006-.006-.013-.119-.019-.335-.005-.243-.012-.556-.02-.951-.011-.864-.026-2.084-.046-3.653-.025-3.199-.061-7.814-.105-13.636l.191.191c-15.793.028-40.827.072-68.968.121.138-.139-.315.311.308-.311v.005.009.019.037.075.15.299.597 1.192c0 .793 0 1.584 0 2.372 0 1.575-.001 3.139-.001 4.69-.002 3.101-.004 6.149-.005 9.13l-.305-.305c19.663.056 36.856.104 49.174.139 6.143.037 11.069.066 14.498.087 1.678.017 2.989.031 3.916.04.426.008.763.015 1.023.02C274.019 278.579 274.141 278.585 274.147 278.592c.007.007-.102.013-.322.02-.25.005-.575.012-.986.02-.912.009-2.201.023-3.851.04-3.412.021-8.314.05-14.428.087-12.371.035-29.639.083-49.386.139l-.305.001 0-.306c-.002-2.982-.003-6.03-.005-9.13 0-1.55-.001-3.114-.001-4.69 0-.788 0-1.578 0-2.372l0-1.192v-.597-.299-.15-.075-.037-.019-.009-.005c.624-.625.176-.173.316-.313 28.141.049 53.175.093 68.968.121l.192 0-.001.191c-.045 5.871-.081 10.524-.105 13.75-.02 1.551-.035 2.757-.046 3.611-.008.381-.015.683-.02.917C274.16 278.498 274.153 278.598 274.147 278.592z" class="colorf1f1f2 svgShape"/><g fill="#000000" class="color000 svgShape"><rect width="10.389" height="190.985" x="481.96" y="544.982" fill="#f1f2f2" class="colorf1f1f2 svgShape"/><defs><path id="SVGID_167_" d="M497.654,538.446c0,5.783-4.688,10.471-10.471,10.471c-5.783,0-10.471-4.688-10.471-10.471          c0-5.783,4.688-10.471,10.471-10.471C492.967,527.976,497.654,532.664,497.654,538.446z" fill="#000000" class="color000 svgShape"/></defs><clipPath id="SVGID_2_"><use overflow="visible" xlink:href="#SVGID_167_"/></clipPath><rect width=".551" height="20.941" x="476.713" y="527.976" fill="#fa1a32" clip-path="url(#SVGID_2_)" class="colorea4606 svgShape"/><rect width=".551" height="20.941" x="477.264" y="527.976" fill="#ea061e" clip-path="url(#SVGID_2_)" class="colorea4706 svgShape"/><rect width=".551" height="20.941" x="477.815" y="527.976" fill="#ea061e" clip-path="url(#SVGID_2_)" class="colorea4806 svgShape"/><rect width=".551" height="20.941" x="478.366" y="527.976" fill="#ea061e" clip-path="url(#SVGID_2_)" class="colorea4906 svgShape"/><rect width=".551" height="20.941" x="478.917" y="527.976" fill="#ea061e" clip-path="url(#SVGID_2_)" class="colorea4a06 svgShape"/><rect width=".551" height="20.941" x="479.468" y="527.976" fill="#ea061e" clip-path="url(#SVGID_2_)" class="colorea4b06 svgShape"/><rect width=".551" height="20.941" x="480.02" y="527.976" fill="#ea061e" clip-path="url(#SVGID_2_)" class="colorea4c06 svgShape"/><rect width=".551" height="20.941" x="480.571" y="527.976" fill="#ea061e" clip-path="url(#SVGID_2_)" class="colorea4d06 svgShape"/><rect width=".551" height="20.941" x="481.122" y="527.976" fill="#ea061e" clip-path="url(#SVGID_2_)" class="colorea4e06 svgShape"/><rect width=".551" height="20.941" x="481.673" y="527.976" fill="#ea061e" clip-path="url(#SVGID_2_)" class="colorea4f06 svgShape"/><rect width=".551" height="20.941" x="482.224" y="527.976" fill="#e9061e" clip-path="url(#SVGID_2_)" class="colore95006 svgShape"/><rect width=".551" height="20.941" x="482.775" y="527.976" fill="#e9061e" clip-path="url(#SVGID_2_)" class="colore95106 svgShape"/><rect width=".551" height="20.941" x="483.326" y="527.976" fill="#e9061e" clip-path="url(#SVGID_2_)" class="colore95206 svgShape"/><rect width=".551" height="20.941" x="483.877" y="527.976" fill="#e9061e" clip-path="url(#SVGID_2_)" class="colore95306 svgShape"/><rect width=".551" height="20.941" x="484.428" y="527.976" fill="#e9061e" clip-path="url(#SVGID_2_)" class="colore95406 svgShape"/><rect width=".551" height="20.941" x="484.979" y="527.976" fill="#e9061e" clip-path="url(#SVGID_2_)" class="colore95506 svgShape"/><rect width=".551" height="20.941" x="485.53" y="527.976" fill="#e9061e" clip-path="url(#SVGID_2_)" class="colore95606 svgShape"/><rect width=".551" height="20.941" x="486.082" y="527.976" fill="#e9061e" clip-path="url(#SVGID_2_)" class="colore95706 svgShape"/><rect width=".551" height="20.941" x="486.633" y="527.976" fill="#e9061e" clip-path="url(#SVGID_2_)" class="colore95806 svgShape"/><rect width=".551" height="20.941" x="487.184" y="527.976" fill="#e9071f" clip-path="url(#SVGID_2_)" class="colore95a07 svgShape"/><rect width=".551" height="20.941" x="487.735" y="527.976" fill="#e9071f" clip-path="url(#SVGID_2_)" class="colore95b07 svgShape"/><rect width=".551" height="20.941" x="488.286" y="527.976" fill="#e9071f" clip-path="url(#SVGID_2_)" class="colore95c07 svgShape"/><rect width=".551" height="20.941" x="488.837" y="527.976" fill="#e9071f" clip-path="url(#SVGID_2_)" class="colore95d07 svgShape"/><rect width=".551" height="20.941" x="489.388" y="527.976" fill="#e9071f" clip-path="url(#SVGID_2_)" class="colore95e07 svgShape"/><rect width=".551" height="20.941" x="489.939" y="527.976" fill="#e9071f" clip-path="url(#SVGID_2_)" class="colore95f07 svgShape"/><rect width=".551" height="20.941" x="490.49" y="527.976" fill="#e9071f" clip-path="url(#SVGID_2_)" class="colore96007 svgShape"/><rect width=".551" height="20.941" x="491.041" y="527.976" fill="#e9071f" clip-path="url(#SVGID_2_)" class="colore96107 svgShape"/><rect width=".551" height="20.941" x="491.592" y="527.976" fill="#e9071f" clip-path="url(#SVGID_2_)" class="colore96207 svgShape"/><rect width=".551" height="20.941" x="492.144" y="527.976" fill="#e8071f" clip-path="url(#SVGID_2_)" class="colore86307 svgShape"/><rect width=".551" height="20.941" x="492.695" y="527.976" fill="#e8071f" clip-path="url(#SVGID_2_)" class="colore86407 svgShape"/><rect width=".551" height="20.941" x="493.246" y="527.976" fill="#e8071f" clip-path="url(#SVGID_2_)" class="colore86507 svgShape"/><rect width=".551" height="20.941" x="493.797" y="527.976" fill="#e8071f" clip-path="url(#SVGID_2_)" class="colore86607 svgShape"/><rect width=".551" height="20.941" x="494.348" y="527.976" fill="#e8071f" clip-path="url(#SVGID_2_)" class="colore86707 svgShape"/><rect width=".551" height="20.941" x="494.899" y="527.976" fill="#e8071f" clip-path="url(#SVGID_2_)" class="colore86807 svgShape"/><rect width=".551" height="20.941" x="495.45" y="527.976" fill="#e8071f" clip-path="url(#SVGID_2_)" class="colore86907 svgShape"/><rect width=".551" height="20.941" x="496.001" y="527.976" fill="#e8071f" clip-path="url(#SVGID_2_)" class="colore86a07 svgShape"/><rect width=".551" height="20.941" x="496.552" y="527.976" fill="#e8071f" clip-path="url(#SVGID_2_)" class="colore86b07 svgShape"/><rect width=".551" height="20.941" x="497.103" y="527.976" fill="#e8071f" clip-path="url(#SVGID_2_)" class="colore86c07 svgShape"/><g fill="#000000" class="color000 svgShape"><rect width="10.39" height="190.985" x="688.415" y="544.982" fill="#f1f2f2" class="colorf1f1f2 svgShape"/><defs><path id="SVGID_169_" d="M704.11,538.446c0,5.783-4.688,10.471-10.471,10.471c-5.783,0-10.471-4.688-10.471-10.471          c0-5.783,4.688-10.471,10.471-10.471C699.422,527.976,704.11,532.664,704.11,538.446z" fill="#000000" class="color000 svgShape"/></defs><clipPath id="SVGID_4_"><use overflow="visible" xlink:href="#SVGID_169_"/></clipPath><rect width=".551" height="20.941" x="683.168" y="527.976" fill="#fa1a32" clip-path="url(#SVGID_4_)" class="colorea4606 svgShape"/><rect width=".551" height="20.941" x="683.719" y="527.976" fill="#ea061e" clip-path="url(#SVGID_4_)" class="colorea4706 svgShape"/><rect width=".551" height="20.941" x="684.27" y="527.976" fill="#ea061e" clip-path="url(#SVGID_4_)" class="colorea4806 svgShape"/><rect width=".551" height="20.941" x="684.822" y="527.976" fill="#ea061e" clip-path="url(#SVGID_4_)" class="colorea4906 svgShape"/><rect width=".551" height="20.941" x="685.373" y="527.976" fill="#ea061e" clip-path="url(#SVGID_4_)" class="colorea4a06 svgShape"/><rect width=".551" height="20.941" x="685.924" y="527.976" fill="#ea061e" clip-path="url(#SVGID_4_)" class="colorea4b06 svgShape"/><rect width=".551" height="20.941" x="686.475" y="527.976" fill="#ea061e" clip-path="url(#SVGID_4_)" class="colorea4c06 svgShape"/><rect width=".551" height="20.941" x="687.026" y="527.976" fill="#ea061e" clip-path="url(#SVGID_4_)" class="colorea4d06 svgShape"/><rect width=".551" height="20.941" x="687.577" y="527.976" fill="#ea061e" clip-path="url(#SVGID_4_)" class="colorea4e06 svgShape"/><rect width=".551" height="20.941" x="688.128" y="527.976" fill="#ea061e" clip-path="url(#SVGID_4_)" class="colorea4f06 svgShape"/><rect width=".551" height="20.941" x="688.679" y="527.976" fill="#e9061e" clip-path="url(#SVGID_4_)" class="colore95006 svgShape"/><rect width=".551" height="20.941" x="689.23" y="527.976" fill="#e9061e" clip-path="url(#SVGID_4_)" class="colore95106 svgShape"/><rect width=".551" height="20.941" x="689.781" y="527.976" fill="#e9061e" clip-path="url(#SVGID_4_)" class="colore95206 svgShape"/><rect width=".551" height="20.941" x="690.332" y="527.976" fill="#e9061e" clip-path="url(#SVGID_4_)" class="colore95306 svgShape"/><rect width=".551" height="20.941" x="690.884" y="527.976" fill="#e9061e" clip-path="url(#SVGID_4_)" class="colore95406 svgShape"/><rect width=".551" height="20.941" x="691.435" y="527.976" fill="#e9061e" clip-path="url(#SVGID_4_)" class="colore95506 svgShape"/><rect width=".551" height="20.941" x="691.986" y="527.976" fill="#e9061e" clip-path="url(#SVGID_4_)" class="colore95606 svgShape"/><rect width=".551" height="20.941" x="692.537" y="527.976" fill="#e9061e" clip-path="url(#SVGID_4_)" class="colore95706 svgShape"/><rect width=".551" height="20.941" x="693.088" y="527.976" fill="#e9061e" clip-path="url(#SVGID_4_)" class="colore95806 svgShape"/><rect width=".551" height="20.941" x="693.639" y="527.976" fill="#e9071f" clip-path="url(#SVGID_4_)" class="colore95a07 svgShape"/><rect width=".551" height="20.941" x="694.19" y="527.976" fill="#e9071f" clip-path="url(#SVGID_4_)" class="colore95b07 svgShape"/><rect width=".551" height="20.941" x="694.741" y="527.976" fill="#e9071f" clip-path="url(#SVGID_4_)" class="colore95c07 svgShape"/><rect width=".551" height="20.941" x="695.292" y="527.976" fill="#e9071f" clip-path="url(#SVGID_4_)" class="colore95d07 svgShape"/><rect width=".551" height="20.941" x="695.843" y="527.976" fill="#e9071f" clip-path="url(#SVGID_4_)" class="colore95e07 svgShape"/><rect width=".551" height="20.941" x="696.394" y="527.976" fill="#e9071f" clip-path="url(#SVGID_4_)" class="colore95f07 svgShape"/><rect width=".551" height="20.941" x="696.946" y="527.976" fill="#e9071f" clip-path="url(#SVGID_4_)" class="colore96007 svgShape"/><rect width=".551" height="20.941" x="697.497" y="527.976" fill="#e9071f" clip-path="url(#SVGID_4_)" class="colore96107 svgShape"/><rect width=".551" height="20.941" x="698.048" y="527.976" fill="#e9071f" clip-path="url(#SVGID_4_)" class="colore96207 svgShape"/><rect width=".551" height="20.941" x="698.599" y="527.976" fill="#e8071f" clip-path="url(#SVGID_4_)" class="colore86307 svgShape"/><rect width=".551" height="20.941" x="699.15" y="527.976" fill="#e8071f" clip-path="url(#SVGID_4_)" class="colore86407 svgShape"/><rect width=".551" height="20.941" x="699.701" y="527.976" fill="#e8071f" clip-path="url(#SVGID_4_)" class="colore86507 svgShape"/><rect width=".551" height="20.941" x="700.252" y="527.976" fill="#e8071f" clip-path="url(#SVGID_4_)" class="colore86607 svgShape"/><rect width=".551" height="20.941" x="700.803" y="527.976" fill="#e8071f" clip-path="url(#SVGID_4_)" class="colore86707 svgShape"/><rect width=".551" height="20.941" x="701.354" y="527.976" fill="#e8071f" clip-path="url(#SVGID_4_)" class="colore86807 svgShape"/><rect width=".551" height="20.941" x="701.905" y="527.976" fill="#e8071f" clip-path="url(#SVGID_4_)" class="colore86907 svgShape"/><rect width=".551" height="20.941" x="702.456" y="527.976" fill="#e8071f" clip-path="url(#SVGID_4_)" class="colore86a07 svgShape"/><rect width=".551" height="20.941" x="703.008" y="527.976" fill="#e8071f" clip-path="url(#SVGID_4_)" class="colore86b07 svgShape"/><rect width=".551" height="20.941" x="703.559" y="527.976" fill="#e8071f" clip-path="url(#SVGID_4_)" class="colore86c07 svgShape"/></g><g fill="#000000" class="color000 svgShape"><defs><rect id="SVGID_171_" width="266.172" height="47.624" x="452.304" y="563.412" fill="#000000" class="color000 svgShape"/></defs><clipPath id="SVGID_6_"><use overflow="visible" xlink:href="#SVGID_171_"/></clipPath><rect width="7.005" height="47.624" x="452.304" y="563.412" fill="#fa1a32" clip-path="url(#SVGID_6_)" class="colorea4606 svgShape"/><rect width="7.005" height="47.624" x="459.308" y="563.412" fill="#ea061e" clip-path="url(#SVGID_6_)" class="colorea4706 svgShape"/><rect width="7.005" height="47.624" x="466.313" y="563.412" fill="#ea061e" clip-path="url(#SVGID_6_)" class="colorea4806 svgShape"/><rect width="7.005" height="47.624" x="473.317" y="563.412" fill="#ea061e" clip-path="url(#SVGID_6_)" class="colorea4906 svgShape"/><rect width="7.005" height="47.624" x="480.322" y="563.412" fill="#ea061e" clip-path="url(#SVGID_6_)" class="colorea4a06 svgShape"/><rect width="7.005" height="47.624" x="487.326" y="563.412" fill="#ea061e" clip-path="url(#SVGID_6_)" class="colorea4b06 svgShape"/><rect width="7.005" height="47.624" x="494.331" y="563.412" fill="#ea061e" clip-path="url(#SVGID_6_)" class="colorea4c06 svgShape"/><rect width="7.005" height="47.624" x="501.335" y="563.412" fill="#ea061e" clip-path="url(#SVGID_6_)" class="colorea4d06 svgShape"/><rect width="7.005" height="47.624" x="508.34" y="563.412" fill="#ea061e" clip-path="url(#SVGID_6_)" class="colorea4e06 svgShape"/><rect width="7.005" height="47.624" x="515.344" y="563.412" fill="#ea061e" clip-path="url(#SVGID_6_)" class="colorea4f06 svgShape"/><rect width="7.005" height="47.624" x="522.349" y="563.412" fill="#e9061e" clip-path="url(#SVGID_6_)" class="colore95006 svgShape"/><rect width="7.005" height="47.624" x="529.354" y="563.412" fill="#e9061e" clip-path="url(#SVGID_6_)" class="colore95106 svgShape"/><rect width="7.005" height="47.624" x="536.358" y="563.412" fill="#e9061e" clip-path="url(#SVGID_6_)" class="colore95206 svgShape"/><rect width="7.005" height="47.624" x="543.363" y="563.412" fill="#e9061e" clip-path="url(#SVGID_6_)" class="colore95306 svgShape"/><rect width="7.005" height="47.624" x="550.367" y="563.412" fill="#e9061e" clip-path="url(#SVGID_6_)" class="colore95406 svgShape"/><rect width="7.005" height="47.624" x="557.372" y="563.412" fill="#e9061e" clip-path="url(#SVGID_6_)" class="colore95506 svgShape"/><rect width="7.005" height="47.624" x="564.376" y="563.412" fill="#e9061e" clip-path="url(#SVGID_6_)" class="colore95606 svgShape"/><rect width="7.005" height="47.624" x="571.381" y="563.412" fill="#e9061e" clip-path="url(#SVGID_6_)" class="colore95706 svgShape"/><rect width="7.005" height="47.624" x="578.385" y="563.412" fill="#e9061e" clip-path="url(#SVGID_6_)" class="colore95806 svgShape"/><rect width="7.005" height="47.624" x="585.39" y="563.412" fill="#e9071f" clip-path="url(#SVGID_6_)" class="colore95a07 svgShape"/><rect width="7.005" height="47.624" x="592.394" y="563.412" fill="#e9071f" clip-path="url(#SVGID_6_)" class="colore95b07 svgShape"/><rect width="7.005" height="47.624" x="599.399" y="563.412" fill="#e9071f" clip-path="url(#SVGID_6_)" class="colore95c07 svgShape"/><rect width="7.005" height="47.624" x="606.403" y="563.412" fill="#e9071f" clip-path="url(#SVGID_6_)" class="colore95d07 svgShape"/><rect width="7.005" height="47.624" x="613.408" y="563.412" fill="#e9071f" clip-path="url(#SVGID_6_)" class="colore95e07 svgShape"/><rect width="7.005" height="47.624" x="620.412" y="563.412" fill="#e9071f" clip-path="url(#SVGID_6_)" class="colore95f07 svgShape"/><rect width="7.005" height="47.624" x="627.417" y="563.412" fill="#e9071f" clip-path="url(#SVGID_6_)" class="colore96007 svgShape"/><rect width="7.005" height="47.624" x="634.422" y="563.412" fill="#e9071f" clip-path="url(#SVGID_6_)" class="colore96107 svgShape"/><rect width="7.005" height="47.624" x="641.426" y="563.412" fill="#e9071f" clip-path="url(#SVGID_6_)" class="colore96207 svgShape"/><rect width="7.005" height="47.624" x="648.431" y="563.412" fill="#e8071f" clip-path="url(#SVGID_6_)" class="colore86307 svgShape"/><rect width="7.005" height="47.624" x="655.435" y="563.412" fill="#e8071f" clip-path="url(#SVGID_6_)" class="colore86407 svgShape"/><rect width="7.005" height="47.624" x="662.44" y="563.412" fill="#e8071f" clip-path="url(#SVGID_6_)" class="colore86507 svgShape"/><rect width="7.005" height="47.624" x="669.444" y="563.412" fill="#e8071f" clip-path="url(#SVGID_6_)" class="colore86607 svgShape"/><rect width="7.005" height="47.624" x="676.449" y="563.412" fill="#e8071f" clip-path="url(#SVGID_6_)" class="colore86707 svgShape"/><rect width="7.005" height="47.624" x="683.453" y="563.412" fill="#e8071f" clip-path="url(#SVGID_6_)" class="colore86807 svgShape"/><rect width="7.005" height="47.624" x="690.458" y="563.412" fill="#e8071f" clip-path="url(#SVGID_6_)" class="colore86907 svgShape"/><rect width="7.005" height="47.624" x="697.462" y="563.412" fill="#e8071f" clip-path="url(#SVGID_6_)" class="colore86a07 svgShape"/><rect width="7.005" height="47.624" x="704.467" y="563.412" fill="#e8071f" clip-path="url(#SVGID_6_)" class="colore86b07 svgShape"/><rect width="7.005" height="47.624" x="711.471" y="563.412" fill="#e8071f" clip-path="url(#SVGID_6_)" class="colore86c07 svgShape"/><g fill="#000000" class="color000 svgShape"><polygon fill="#f1f2f2" points="482.422 563.412 481.96 564.2 454.614 611.036 452.304 611.036 452.304 563.412" class="colorf1f1f2 svgShape"/></g><g fill="#000000" class="color000 svgShape"><polygon fill="#f1f2f2" points="549.699 563.412 521.864 611.036 485.494 611.036 496.557 592.117 513.329 563.412" class="colorf1f1f2 svgShape"/></g><g fill="#000000" class="color000 svgShape"><polygon fill="#f1f2f2" points="616.949 563.412 589.114 611.036 552.744 611.036 580.578 563.412" class="colorf1f1f2 svgShape"/></g><g fill="#000000" class="color000 svgShape"><polygon fill="#f1f2f2" points="684.195 563.422 656.353 611.036 619.989 611.036 647.831 563.422" class="colorf1f1f2 svgShape"/></g><g fill="#000000" class="color000 svgShape"><polygon fill="#f1f2f2" points="718.477 563.422 718.477 611.036 687.239 611.036 715.081 563.422" class="colorf1f1f2 svgShape"/></g></g><g fill="#000000" class="color000 svgShape"><defs><rect id="SVGID_173_" width="266.172" height="47.624" x="452.304" y="636.985" fill="#000000" class="color000 svgShape"/></defs><clipPath id="SVGID_8_"><use overflow="visible" xlink:href="#SVGID_173_"/></clipPath><rect width="7.005" height="47.624" x="452.304" y="636.985" fill="#fa1a32" clip-path="url(#SVGID_8_)" class="colorea4606 svgShape"/><rect width="7.005" height="47.624" x="459.308" y="636.985" fill="#ea061e" clip-path="url(#SVGID_8_)" class="colorea4706 svgShape"/><rect width="7.005" height="47.624" x="466.313" y="636.985" fill="#ea061e" clip-path="url(#SVGID_8_)" class="colorea4806 svgShape"/><rect width="7.005" height="47.624" x="473.317" y="636.985" fill="#ea061e" clip-path="url(#SVGID_8_)" class="colorea4906 svgShape"/><rect width="7.005" height="47.624" x="480.322" y="636.985" fill="#ea061e" clip-path="url(#SVGID_8_)" class="colorea4a06 svgShape"/><rect width="7.005" height="47.624" x="487.326" y="636.985" fill="#ea061e" clip-path="url(#SVGID_8_)" class="colorea4b06 svgShape"/><rect width="7.005" height="47.624" x="494.331" y="636.985" fill="#ea061e" clip-path="url(#SVGID_8_)" class="colorea4c06 svgShape"/><rect width="7.005" height="47.624" x="501.335" y="636.985" fill="#ea061e" clip-path="url(#SVGID_8_)" class="colorea4d06 svgShape"/><rect width="7.005" height="47.624" x="508.34" y="636.985" fill="#ea061e" clip-path="url(#SVGID_8_)" class="colorea4e06 svgShape"/><rect width="7.005" height="47.624" x="515.344" y="636.985" fill="#ea061e" clip-path="url(#SVGID_8_)" class="colorea4f06 svgShape"/><rect width="7.005" height="47.624" x="522.349" y="636.985" fill="#e9061e" clip-path="url(#SVGID_8_)" class="colore95006 svgShape"/><rect width="7.005" height="47.624" x="529.354" y="636.985" fill="#e9061e" clip-path="url(#SVGID_8_)" class="colore95106 svgShape"/><rect width="7.005" height="47.624" x="536.358" y="636.985" fill="#e9061e" clip-path="url(#SVGID_8_)" class="colore95206 svgShape"/><rect width="7.005" height="47.624" x="543.363" y="636.985" fill="#e9061e" clip-path="url(#SVGID_8_)" class="colore95306 svgShape"/><rect width="7.005" height="47.624" x="550.367" y="636.985" fill="#e9061e" clip-path="url(#SVGID_8_)" class="colore95406 svgShape"/><rect width="7.005" height="47.624" x="557.372" y="636.985" fill="#e9061e" clip-path="url(#SVGID_8_)" class="colore95506 svgShape"/><rect width="7.005" height="47.624" x="564.376" y="636.985" fill="#e9061e" clip-path="url(#SVGID_8_)" class="colore95606 svgShape"/><rect width="7.005" height="47.624" x="571.381" y="636.985" fill="#e9061e" clip-path="url(#SVGID_8_)" class="colore95706 svgShape"/><rect width="7.005" height="47.624" x="578.385" y="636.985" fill="#e9061e" clip-path="url(#SVGID_8_)" class="colore95806 svgShape"/><rect width="7.005" height="47.624" x="585.39" y="636.985" fill="#e9071f" clip-path="url(#SVGID_8_)" class="colore95a07 svgShape"/><rect width="7.005" height="47.624" x="592.394" y="636.985" fill="#e9071f" clip-path="url(#SVGID_8_)" class="colore95b07 svgShape"/><rect width="7.005" height="47.624" x="599.399" y="636.985" fill="#e9071f" clip-path="url(#SVGID_8_)" class="colore95c07 svgShape"/><rect width="7.005" height="47.624" x="606.403" y="636.985" fill="#e9071f" clip-path="url(#SVGID_8_)" class="colore95d07 svgShape"/><rect width="7.005" height="47.624" x="613.408" y="636.985" fill="#e9071f" clip-path="url(#SVGID_8_)" class="colore95e07 svgShape"/><rect width="7.005" height="47.624" x="620.412" y="636.985" fill="#e9071f" clip-path="url(#SVGID_8_)" class="colore95f07 svgShape"/><rect width="7.005" height="47.624" x="627.417" y="636.985" fill="#e9071f" clip-path="url(#SVGID_8_)" class="colore96007 svgShape"/><rect width="7.005" height="47.624" x="634.422" y="636.985" fill="#e9071f" clip-path="url(#SVGID_8_)" class="colore96107 svgShape"/><rect width="7.005" height="47.624" x="641.426" y="636.985" fill="#e9071f" clip-path="url(#SVGID_8_)" class="colore96207 svgShape"/><rect width="7.005" height="47.624" x="648.431" y="636.985" fill="#e8071f" clip-path="url(#SVGID_8_)" class="colore86307 svgShape"/><rect width="7.005" height="47.624" x="655.435" y="636.985" fill="#e8071f" clip-path="url(#SVGID_8_)" class="colore86407 svgShape"/><rect width="7.005" height="47.624" x="662.44" y="636.985" fill="#e8071f" clip-path="url(#SVGID_8_)" class="colore86507 svgShape"/><rect width="7.005" height="47.624" x="669.444" y="636.985" fill="#e8071f" clip-path="url(#SVGID_8_)" class="colore86607 svgShape"/><rect width="7.005" height="47.624" x="676.449" y="636.985" fill="#e8071f" clip-path="url(#SVGID_8_)" class="colore86707 svgShape"/><rect width="7.005" height="47.624" x="683.453" y="636.985" fill="#e8071f" clip-path="url(#SVGID_8_)" class="colore86807 svgShape"/><rect width="7.005" height="47.624" x="690.458" y="636.985" fill="#e8071f" clip-path="url(#SVGID_8_)" class="colore86907 svgShape"/><rect width="7.005" height="47.624" x="697.462" y="636.985" fill="#e8071f" clip-path="url(#SVGID_8_)" class="colore86a07 svgShape"/><rect width="7.005" height="47.624" x="704.467" y="636.985" fill="#e8071f" clip-path="url(#SVGID_8_)" class="colore86b07 svgShape"/><rect width="7.005" height="47.624" x="711.471" y="636.985" fill="#e8071f" clip-path="url(#SVGID_8_)" class="colore86c07 svgShape"/><g fill="#000000" class="color000 svgShape"><polygon fill="#f1f2f2" points="482.422 636.985 481.96 637.773 454.614 684.609 452.304 684.609 452.304 636.985" class="colorf1f1f2 svgShape"/></g><g fill="#000000" class="color000 svgShape"><polygon fill="#f1f2f2" points="549.699 636.985 521.864 684.609 485.494 684.609 496.557 665.69 513.329 636.985" class="colorf1f1f2 svgShape"/></g><g fill="#000000" class="color000 svgShape"><polygon fill="#f1f2f2" points="616.949 636.985 589.114 684.609 552.744 684.609 580.578 636.985" class="colorf1f1f2 svgShape"/></g><g fill="#000000" class="color000 svgShape"><polygon fill="#f1f2f2" points="684.195 636.995 656.353 684.609 619.989 684.609 647.831 636.995" class="colorf1f1f2 svgShape"/></g><g fill="#000000" class="color000 svgShape"><polygon fill="#f1f2f2" points="718.477 636.995 718.477 684.609 687.239 684.609 715.081 636.995" class="colorf1f1f2 svgShape"/></g></g></g><g fill="#000000" class="color000 svgShape"><path fill="#f1f2f2" d="M695.052,481.081l-199.833,18.602c-13.221,1.231-24.936-8.489-26.166-21.71L450.451,278.14       c-1.231-13.221,8.489-24.936,21.71-26.166l199.832-18.602c13.221-1.231,24.936,8.489,26.166,21.71l18.602,199.833       C717.992,468.135,708.272,479.85,695.052,481.081z" class="colorf1f1f2 svgShape"/><rect width="10.178" height="24.702" x="468.817" y="246.466" fill="#0090d7" transform="rotate(-5.315 473.878 258.766)" class="colore1e1e1 svgShape"/><rect width="10.178" height="24.702" x="490.321" y="477.485" fill="#0090d7" transform="rotate(-5.315 495.316 489.692)" class="colore1e1e1 svgShape"/><rect width="10.178" height="24.702" x="670.986" y="227.647" fill="#0090d7" transform="rotate(-5.315 675.925 239.905)" class="colore1e1e1 svgShape"/><rect width="10.178" height="24.702" x="692.636" y="460.228" fill="#0090d7" transform="rotate(-5.315 697.68 472.489)" class="colore1e1e1 svgShape"/><circle cx="582.378" cy="372.399" r="81.512" fill="#ffffff" transform="rotate(-45.001 582.376 372.407)" class="colorfff svgShape"/><path fill="#ffffff" d="M582.437,292.038c-2.483,0-4.986,0.115-7.507,0.35c-44.118,4.107-76.669,43.341-72.562,87.458       c1.989,21.372,12.182,40.69,28.701,54.395c16.519,13.706,37.373,20.157,58.758,18.169       c44.118-4.107,76.669-43.341,72.562-87.459C658.515,323.353,623.416,292.038,582.437,292.038z" class="colorfff svgShape"/><g fill="#000000" class="color000 svgShape"><defs><path id="SVGID_175_" d="M620.255,363.021c-1.818-3.199-7.056-3.464-9.209-0.466c-1.172,1.631-1.874,3.663-2.503,5.607         c-1.596,4.935-3.007,9.93-4.563,14.879c-0.167,0.533-0.797,0.92-1.213,1.374c-0.336-0.512-0.894-0.993-0.97-1.541         c-0.393-2.824-0.704-5.662-0.967-8.502c-0.516-5.575-0.96-11.157-1.472-16.732c-0.86-9.372-1.721-18.744-2.67-28.108         c-0.102-1.009-0.585-2.129-1.241-2.903c-1.468-1.733-4.122-2.098-6.326-1.127c-1.851,0.815-3.019,2.942-2.805,5.291         c0.906,9.943,1.839,19.883,2.76,29.825c0.043,0.466,0.202,0.976,0.067,1.386c-0.124,0.375-0.552,0.863-0.886,0.896         c-0.332,0.033-0.845-0.366-1.038-0.71c-0.211-0.377-0.158-0.908-0.201-1.373c-1.078-11.546-2.152-23.092-3.231-34.638         c-0.068-0.724-0.107-1.458-0.258-2.166c-0.442-2.076-1.588-3.14-3.664-3.49c-4.264-0.718-7.1,1.887-6.702,6.202         c1.049,11.392,2.119,22.782,3.177,34.173c0.063,0.672,0.186,1.362,0.09,2.016c-0.051,0.349-0.489,0.863-0.793,0.893         c-0.336,0.033-0.902-0.324-1.04-0.649c-0.234-0.552-0.235-1.212-0.293-1.83c-0.854-9.112-1.673-18.228-2.567-27.336         c-0.31-3.161-2.544-4.863-5.704-4.552c-3.16,0.311-5.016,2.44-4.734,5.559c0.877,9.684,1.791,19.366,2.69,29.048         c0.053,0.57,0.238,1.17,0.117,1.7c-0.12,0.522-0.553,0.972-0.848,1.454c-0.417-0.43-1.149-0.823-1.202-1.294         c-0.396-3.511-0.647-7.037-0.964-10.557c-0.336-3.729-0.649-7.461-1.06-11.182c-0.319-2.886-2.756-4.621-5.835-4.287         c-2.746,0.297-4.383,2.32-4.199,5.161c0.475,7.314,0.941,14.628,1.411,21.942c-0.07,0.007,0.07-0.007,0,0         c0.414,4.449,0.775,8.91,1,13.368c0.452,8.959,2.028,17.657,5.872,25.8c3.617,7.663,9.622,12.618,18.012,14.168         c9.062,1.674,17.586-0.243,25.348-5.1c5.216-3.264,9.112-7.843,10.696-13.879c2.961-11.285,5.697-22.631,8.385-33.985         C621.043,366.001,620.921,364.193,620.255,363.021z" fill="#000000" class="color000 svgShape"/></defs><clipPath id="SVGID_10_"><use overflow="visible" xlink:href="#SVGID_175_"/></clipPath><rect width=".17" height="102.19" x="549.814" y="319.804" fill="#fa1a32" clip-path="url(#SVGID_10_)" class="colorea4606 svgShape"/><rect width="1.866" height="102.19" x="549.985" y="319.804" fill="#fa1a32" clip-path="url(#SVGID_10_)" class="colorea4606 svgShape"/><rect width="1.866" height="102.19" x="551.851" y="319.804" fill="#ea061e" clip-path="url(#SVGID_10_)" class="colorea4706 svgShape"/><rect width="1.866" height="102.19" x="553.717" y="319.804" fill="#ea061e" clip-path="url(#SVGID_10_)" class="colorea4806 svgShape"/><rect width="1.866" height="102.19" x="555.583" y="319.804" fill="#ea061e" clip-path="url(#SVGID_10_)" class="colorea4906 svgShape"/><rect width="1.866" height="102.19" x="557.449" y="319.804" fill="#ea061e" clip-path="url(#SVGID_10_)" class="colorea4a06 svgShape"/><rect width="1.866" height="102.19" x="559.315" y="319.804" fill="#ea061e" clip-path="url(#SVGID_10_)" class="colorea4b06 svgShape"/><rect width="1.866" height="102.19" x="561.181" y="319.804" fill="#ea061e" clip-path="url(#SVGID_10_)" class="colorea4c06 svgShape"/><rect width="1.866" height="102.19" x="563.047" y="319.804" fill="#ea061e" clip-path="url(#SVGID_10_)" class="colorea4d06 svgShape"/><rect width="1.866" height="102.19" x="564.912" y="319.804" fill="#ea061e" clip-path="url(#SVGID_10_)" class="colorea4e06 svgShape"/><rect width="1.866" height="102.19" x="566.778" y="319.804" fill="#ea061e" clip-path="url(#SVGID_10_)" class="colorea4f06 svgShape"/><rect width="1.866" height="102.19" x="568.644" y="319.804" fill="#e9061e" clip-path="url(#SVGID_10_)" class="colore95006 svgShape"/><rect width="1.866" height="102.19" x="570.51" y="319.804" fill="#e9061e" clip-path="url(#SVGID_10_)" class="colore95106 svgShape"/><rect width="1.866" height="102.19" x="572.376" y="319.804" fill="#e9061e" clip-path="url(#SVGID_10_)" class="colore95206 svgShape"/><rect width="1.866" height="102.19" x="574.242" y="319.804" fill="#e9061e" clip-path="url(#SVGID_10_)" class="colore95306 svgShape"/><rect width="1.866" height="102.19" x="576.108" y="319.804" fill="#e9061e" clip-path="url(#SVGID_10_)" class="colore95406 svgShape"/><rect width="1.866" height="102.19" x="577.974" y="319.804" fill="#e9061e" clip-path="url(#SVGID_10_)" class="colore95506 svgShape"/><rect width="1.866" height="102.19" x="579.84" y="319.804" fill="#e9061e" clip-path="url(#SVGID_10_)" class="colore95606 svgShape"/><rect width="1.866" height="102.19" x="581.706" y="319.804" fill="#e9061e" clip-path="url(#SVGID_10_)" class="colore95706 svgShape"/><rect width="1.866" height="102.19" x="583.572" y="319.804" fill="#e9061e" clip-path="url(#SVGID_10_)" class="colore95806 svgShape"/><rect width="1.866" height="102.19" x="585.438" y="319.804" fill="#e9071f" clip-path="url(#SVGID_10_)" class="colore95a07 svgShape"/><rect width="1.866" height="102.19" x="587.304" y="319.804" fill="#e9071f" clip-path="url(#SVGID_10_)" class="colore95b07 svgShape"/><rect width="1.866" height="102.19" x="589.17" y="319.804" fill="#e9071f" clip-path="url(#SVGID_10_)" class="colore95c07 svgShape"/><rect width="1.866" height="102.19" x="591.036" y="319.804" fill="#e9071f" clip-path="url(#SVGID_10_)" class="colore95d07 svgShape"/><rect width="1.866" height="102.19" x="592.902" y="319.804" fill="#e9071f" clip-path="url(#SVGID_10_)" class="colore95e07 svgShape"/><rect width="1.866" height="102.19" x="594.768" y="319.804" fill="#e9071f" clip-path="url(#SVGID_10_)" class="colore95f07 svgShape"/><rect width="1.866" height="102.19" x="596.634" y="319.804" fill="#e9071f" clip-path="url(#SVGID_10_)" class="colore96007 svgShape"/><rect width="1.866" height="102.19" x="598.5" y="319.804" fill="#e9071f" clip-path="url(#SVGID_10_)" class="colore96107 svgShape"/><rect width="1.866" height="102.19" x="600.366" y="319.804" fill="#e9071f" clip-path="url(#SVGID_10_)" class="colore96207 svgShape"/><rect width="1.866" height="102.19" x="602.232" y="319.804" fill="#e8071f" clip-path="url(#SVGID_10_)" class="colore86307 svgShape"/><rect width="1.866" height="102.19" x="604.098" y="319.804" fill="#e8071f" clip-path="url(#SVGID_10_)" class="colore86407 svgShape"/><rect width="1.866" height="102.19" x="605.964" y="319.804" fill="#e8071f" clip-path="url(#SVGID_10_)" class="colore86507 svgShape"/><rect width="1.866" height="102.19" x="607.83" y="319.804" fill="#e8071f" clip-path="url(#SVGID_10_)" class="colore86607 svgShape"/><rect width="1.866" height="102.19" x="609.696" y="319.804" fill="#e8071f" clip-path="url(#SVGID_10_)" class="colore86707 svgShape"/><rect width="1.866" height="102.19" x="611.562" y="319.804" fill="#e8071f" clip-path="url(#SVGID_10_)" class="colore86807 svgShape"/><rect width="1.866" height="102.19" x="613.428" y="319.804" fill="#e8071f" clip-path="url(#SVGID_10_)" class="colore86907 svgShape"/><rect width="1.866" height="102.19" x="615.294" y="319.804" fill="#e8071f" clip-path="url(#SVGID_10_)" class="colore86a07 svgShape"/><rect width="1.866" height="102.19" x="617.16" y="319.804" fill="#e8071f" clip-path="url(#SVGID_10_)" class="colore86b07 svgShape"/><rect width="1.866" height="102.19" x="619.026" y="319.804" fill="#e8071f" clip-path="url(#SVGID_10_)" class="colore86c07 svgShape"/><rect width=".151" height="102.19" x="620.892" y="319.804" fill="#e8071f" clip-path="url(#SVGID_10_)" class="colore86c07 svgShape"/></g></g><g fill="#000000" class="color000 svgShape"><defs><path id="SVGID_177_" d="M305.411,700.192c0,0-2.892,13.561-2.754,18.081c0.138,4.52-0.005,7.534-0.005,7.534h36.767       c0,0-0.636-9.988-6.196-11.602c-6.747-1.959-11.428,1.356-11.428,1.356s-3.305-2.562-3.305-12.958       C316.701,700.644,305.411,700.192,305.411,700.192z" fill="#000000" class="color000 svgShape"/></defs><clipPath id="SVGID_12_"><use overflow="visible" xlink:href="#SVGID_177_"/></clipPath><rect width=".133" height="25.615" x="302.519" y="700.192" fill="#fa1a32" clip-path="url(#SVGID_12_)" class="colorea4606 svgShape"/><rect width=".968" height="25.615" x="302.652" y="700.192" fill="#fa1a32" clip-path="url(#SVGID_12_)" class="colorea4606 svgShape"/><rect width=".968" height="25.615" x="303.62" y="700.192" fill="#ea061e" clip-path="url(#SVGID_12_)" class="colorea4706 svgShape"/><rect width=".968" height="25.615" x="304.587" y="700.192" fill="#ea061e" clip-path="url(#SVGID_12_)" class="colorea4806 svgShape"/><rect width=".968" height="25.615" x="305.555" y="700.192" fill="#ea061e" clip-path="url(#SVGID_12_)" class="colorea4906 svgShape"/><rect width=".968" height="25.615" x="306.522" y="700.192" fill="#ea061e" clip-path="url(#SVGID_12_)" class="colorea4a06 svgShape"/><rect width=".968" height="25.615" x="307.49" y="700.192" fill="#ea061e" clip-path="url(#SVGID_12_)" class="colorea4b06 svgShape"/><rect width=".968" height="25.615" x="308.457" y="700.192" fill="#ea061e" clip-path="url(#SVGID_12_)" class="colorea4c06 svgShape"/><rect width=".968" height="25.615" x="309.425" y="700.192" fill="#ea061e" clip-path="url(#SVGID_12_)" class="colorea4d06 svgShape"/><rect width=".968" height="25.615" x="310.393" y="700.192" fill="#ea061e" clip-path="url(#SVGID_12_)" class="colorea4e06 svgShape"/><rect width=".968" height="25.615" x="311.36" y="700.192" fill="#ea061e" clip-path="url(#SVGID_12_)" class="colorea4f06 svgShape"/><rect width=".968" height="25.615" x="312.328" y="700.192" fill="#e9061e" clip-path="url(#SVGID_12_)" class="colore95006 svgShape"/><rect width=".968" height="25.615" x="313.295" y="700.192" fill="#e9061e" clip-path="url(#SVGID_12_)" class="colore95106 svgShape"/><rect width=".968" height="25.615" x="314.263" y="700.192" fill="#e9061e" clip-path="url(#SVGID_12_)" class="colore95206 svgShape"/><rect width=".968" height="25.615" x="315.23" y="700.192" fill="#e9061e" clip-path="url(#SVGID_12_)" class="colore95306 svgShape"/><rect width=".968" height="25.615" x="316.198" y="700.192" fill="#e9061e" clip-path="url(#SVGID_12_)" class="colore95406 svgShape"/><rect width=".968" height="25.615" x="317.166" y="700.192" fill="#e9061e" clip-path="url(#SVGID_12_)" class="colore95506 svgShape"/><rect width=".968" height="25.615" x="318.133" y="700.192" fill="#e9061e" clip-path="url(#SVGID_12_)" class="colore95606 svgShape"/><rect width=".968" height="25.615" x="319.101" y="700.192" fill="#e9061e" clip-path="url(#SVGID_12_)" class="colore95706 svgShape"/><rect width=".968" height="25.615" x="320.068" y="700.192" fill="#e9061e" clip-path="url(#SVGID_12_)" class="colore95806 svgShape"/><rect width=".968" height="25.615" x="321.036" y="700.192" fill="#e9071f" clip-path="url(#SVGID_12_)" class="colore95a07 svgShape"/><rect width=".968" height="25.615" x="322.003" y="700.192" fill="#e9071f" clip-path="url(#SVGID_12_)" class="colore95b07 svgShape"/><rect width=".968" height="25.615" x="322.971" y="700.192" fill="#e9071f" clip-path="url(#SVGID_12_)" class="colore95c07 svgShape"/><rect width=".968" height="25.615" x="323.938" y="700.192" fill="#e9071f" clip-path="url(#SVGID_12_)" class="colore95d07 svgShape"/><rect width=".968" height="25.615" x="324.906" y="700.192" fill="#e9071f" clip-path="url(#SVGID_12_)" class="colore95e07 svgShape"/><rect width=".968" height="25.615" x="325.874" y="700.192" fill="#e9071f" clip-path="url(#SVGID_12_)" class="colore95f07 svgShape"/><rect width=".968" height="25.615" x="326.841" y="700.192" fill="#e9071f" clip-path="url(#SVGID_12_)" class="colore96007 svgShape"/><rect width=".968" height="25.615" x="327.809" y="700.192" fill="#e9071f" clip-path="url(#SVGID_12_)" class="colore96107 svgShape"/><rect width=".968" height="25.615" x="328.776" y="700.192" fill="#e9071f" clip-path="url(#SVGID_12_)" class="colore96207 svgShape"/><rect width=".968" height="25.615" x="329.744" y="700.192" fill="#e8071f" clip-path="url(#SVGID_12_)" class="colore86307 svgShape"/><rect width=".968" height="25.615" x="330.711" y="700.192" fill="#e8071f" clip-path="url(#SVGID_12_)" class="colore86407 svgShape"/><rect width=".968" height="25.615" x="331.679" y="700.192" fill="#e8071f" clip-path="url(#SVGID_12_)" class="colore86507 svgShape"/><rect width=".968" height="25.615" x="332.647" y="700.192" fill="#e8071f" clip-path="url(#SVGID_12_)" class="colore86607 svgShape"/><rect width=".968" height="25.615" x="333.614" y="700.192" fill="#e8071f" clip-path="url(#SVGID_12_)" class="colore86707 svgShape"/><rect width=".968" height="25.615" x="334.582" y="700.192" fill="#e8071f" clip-path="url(#SVGID_12_)" class="colore86807 svgShape"/><rect width=".968" height="25.615" x="335.549" y="700.192" fill="#e8071f" clip-path="url(#SVGID_12_)" class="colore86907 svgShape"/><rect width=".968" height="25.615" x="336.517" y="700.192" fill="#e8071f" clip-path="url(#SVGID_12_)" class="colore86a07 svgShape"/><rect width=".968" height="25.615" x="337.484" y="700.192" fill="#e8071f" clip-path="url(#SVGID_12_)" class="colore86b07 svgShape"/><rect width=".968" height="25.615" x="338.452" y="700.192" fill="#e8071f" clip-path="url(#SVGID_12_)" class="colore86c07 svgShape"/><g fill="#000000" class="color000 svgShape"><defs><path id="SVGID_179_" d="M265.978,700.192c0,0-2.892,13.561-2.754,18.081c0.138,4.52-0.005,7.534-0.005,7.534h36.767       c0,0-0.636-9.988-6.196-11.602c-6.747-1.959-11.428,1.356-11.428,1.356s-3.305-2.562-3.305-12.958       C277.268,700.644,265.978,700.192,265.978,700.192z" fill="#000000" class="color000 svgShape"/></defs><clipPath id="SVGID_14_"><use overflow="visible" xlink:href="#SVGID_179_"/></clipPath><rect width=".133" height="25.615" x="263.086" y="700.192" fill="#fa1a32" clip-path="url(#SVGID_14_)" class="colorea4606 svgShape"/><rect width=".968" height="25.615" x="263.219" y="700.192" fill="#fa1a32" clip-path="url(#SVGID_14_)" class="colorea4606 svgShape"/><rect width=".968" height="25.615" x="264.186" y="700.192" fill="#ea061e" clip-path="url(#SVGID_14_)" class="colorea4706 svgShape"/><rect width=".968" height="25.615" x="265.154" y="700.192" fill="#ea061e" clip-path="url(#SVGID_14_)" class="colorea4806 svgShape"/><rect width=".968" height="25.615" x="266.122" y="700.192" fill="#ea061e" clip-path="url(#SVGID_14_)" class="colorea4906 svgShape"/><rect width=".968" height="25.615" x="267.089" y="700.192" fill="#ea061e" clip-path="url(#SVGID_14_)" class="colorea4a06 svgShape"/><rect width=".968" height="25.615" x="268.057" y="700.192" fill="#ea061e" clip-path="url(#SVGID_14_)" class="colorea4b06 svgShape"/><rect width=".968" height="25.615" x="269.024" y="700.192" fill="#ea061e" clip-path="url(#SVGID_14_)" class="colorea4c06 svgShape"/><rect width=".968" height="25.615" x="269.992" y="700.192" fill="#ea061e" clip-path="url(#SVGID_14_)" class="colorea4d06 svgShape"/><rect width=".968" height="25.615" x="270.959" y="700.192" fill="#ea061e" clip-path="url(#SVGID_14_)" class="colorea4e06 svgShape"/><rect width=".968" height="25.615" x="271.927" y="700.192" fill="#ea061e" clip-path="url(#SVGID_14_)" class="colorea4f06 svgShape"/><rect width=".968" height="25.615" x="272.895" y="700.192" fill="#e9061e" clip-path="url(#SVGID_14_)" class="colore95006 svgShape"/><rect width=".968" height="25.615" x="273.862" y="700.192" fill="#e9061e" clip-path="url(#SVGID_14_)" class="colore95106 svgShape"/><rect width=".968" height="25.615" x="274.83" y="700.192" fill="#e9061e" clip-path="url(#SVGID_14_)" class="colore95206 svgShape"/><rect width=".968" height="25.615" x="275.797" y="700.192" fill="#e9061e" clip-path="url(#SVGID_14_)" class="colore95306 svgShape"/><rect width=".968" height="25.615" x="276.765" y="700.192" fill="#e9061e" clip-path="url(#SVGID_14_)" class="colore95406 svgShape"/><rect width=".968" height="25.615" x="277.732" y="700.192" fill="#e9061e" clip-path="url(#SVGID_14_)" class="colore95506 svgShape"/><rect width=".968" height="25.615" x="278.7" y="700.192" fill="#e9061e" clip-path="url(#SVGID_14_)" class="colore95606 svgShape"/><rect width=".968" height="25.615" x="279.667" y="700.192" fill="#e9061e" clip-path="url(#SVGID_14_)" class="colore95706 svgShape"/><rect width=".968" height="25.615" x="280.635" y="700.192" fill="#e9061e" clip-path="url(#SVGID_14_)" class="colore95806 svgShape"/><rect width=".968" height="25.615" x="281.603" y="700.192" fill="#e9071f" clip-path="url(#SVGID_14_)" class="colore95a07 svgShape"/><rect width=".968" height="25.615" x="282.57" y="700.192" fill="#e9071f" clip-path="url(#SVGID_14_)" class="colore95b07 svgShape"/><rect width=".968" height="25.615" x="283.538" y="700.192" fill="#e9071f" clip-path="url(#SVGID_14_)" class="colore95c07 svgShape"/><rect width=".968" height="25.615" x="284.505" y="700.192" fill="#e9071f" clip-path="url(#SVGID_14_)" class="colore95d07 svgShape"/><rect width=".968" height="25.615" x="285.473" y="700.192" fill="#e9071f" clip-path="url(#SVGID_14_)" class="colore95e07 svgShape"/><rect width=".968" height="25.615" x="286.44" y="700.192" fill="#e9071f" clip-path="url(#SVGID_14_)" class="colore95f07 svgShape"/><rect width=".968" height="25.615" x="287.408" y="700.192" fill="#e9071f" clip-path="url(#SVGID_14_)" class="colore96007 svgShape"/><rect width=".968" height="25.615" x="288.375" y="700.192" fill="#e9071f" clip-path="url(#SVGID_14_)" class="colore96107 svgShape"/><rect width=".968" height="25.615" x="289.343" y="700.192" fill="#e9071f" clip-path="url(#SVGID_14_)" class="colore96207 svgShape"/><rect width=".968" height="25.615" x="290.311" y="700.192" fill="#e8071f" clip-path="url(#SVGID_14_)" class="colore86307 svgShape"/><rect width=".968" height="25.615" x="291.278" y="700.192" fill="#e8071f" clip-path="url(#SVGID_14_)" class="colore86407 svgShape"/><rect width=".968" height="25.615" x="292.246" y="700.192" fill="#e8071f" clip-path="url(#SVGID_14_)" class="colore86507 svgShape"/><rect width=".968" height="25.615" x="293.213" y="700.192" fill="#e8071f" clip-path="url(#SVGID_14_)" class="colore86607 svgShape"/><rect width=".968" height="25.615" x="294.181" y="700.192" fill="#e8071f" clip-path="url(#SVGID_14_)" class="colore86707 svgShape"/><rect width=".968" height="25.615" x="295.148" y="700.192" fill="#e8071f" clip-path="url(#SVGID_14_)" class="colore86807 svgShape"/><rect width=".968" height="25.615" x="296.116" y="700.192" fill="#e8071f" clip-path="url(#SVGID_14_)" class="colore86907 svgShape"/><rect width=".968" height="25.615" x="297.084" y="700.192" fill="#e8071f" clip-path="url(#SVGID_14_)" class="colore86a07 svgShape"/><rect width=".968" height="25.615" x="298.051" y="700.192" fill="#e8071f" clip-path="url(#SVGID_14_)" class="colore86b07 svgShape"/><rect width=".968" height="25.615" x="299.019" y="700.192" fill="#e8071f" clip-path="url(#SVGID_14_)" class="colore86c07 svgShape"/></g><g fill="#000000" class="color000 svgShape"><path fill="#003463" d="M334.515,600.768c-0.488-17.707-1.757-34.557-3.064-51.587c-1.343-16.994-5.618-37.001-7.269-54.01     l-43.28-0.446c0.038,0.172,0.08,0.363,0.119,0.538l-20.544-0.538c0,0-3.203,18.351-3.512,42.69     c-0.308,24.339,4.991,93.636,4.991,93.636v-0.001l0.294,71.055c0,0,2.052,3.705,9.743,3.705c7.691,0,10.8-3.168,10.8-3.168     l12.723-140.28c2.733,13.791,5.361,27.64,7.362,40.916c0.313,1.995,0.564,3.872,0.778,5.673c0.271,1.864,0.396,3.628,0.546,5.414     c0.277,3.633,0.396,7.598,0.441,11.594c0.085,8.021-0.101,16.286-0.392,24.57c-0.624,16.577-1.668,33.402-2.966,50.016     c0,0,0.532,2.903,8.628,4.675c8.096,1.772,10.668-1.02,10.668-1.02c3.365-16.724,6.426-33.329,9.131-50.251     c1.328-8.467,2.564-16.977,3.543-25.732c0.486-4.388,0.908-8.817,1.15-13.526c0.108-2.381,0.223-4.779,0.189-7.085     C334.611,605.246,334.588,602.954,334.515,600.768z" class="color112e5b svgShape"/></g><g fill="#000000" class="color000 svgShape"><defs><path id="SVGID_181_" d="M374.976,405.601c-1.281-11.952-3.555-23.055-6.413-34.32l-11.152,2.349       c1.098,10.678,1.681,21.809,1.258,32.308c-0.223,5.225-0.753,10.425-1.843,14.696c-0.323,1.295-0.745,2.469-1.162,3.363       c-0.312-0.198-0.693-0.448-1.141-0.849c-1.265-1.03-2.755-2.537-4.208-4.198c-2.939-3.348-5.83-7.434-8.576-11.649       c-2.748-4.251-5.431-8.773-7.979-13.378c-1.7-3.072-4.217-5.237-7.042-6.467c-10.092-5.762-26.081-7.255-34.522-7.255       c-8.884,0-26.128,1.653-36.051,8.202c-0.09,0.049-0.175,0.112-0.264,0.163c-0.333,0.226-0.729,0.409-1.045,0.647       c-0.103,0.078-0.191,0.219-0.289,0.316c-0.522,0.374-1.068,0.679-1.56,1.127c-4.089,3.72-8.11,7.514-12.144,11.452       c-4.359,4.278-8.658,8.694-12.876,13.403c-4.215,4.762-8.353,9.642-12.341,15.827c-0.995,1.556-1.983,3.237-2.945,5.139       c-0.485,1.03-0.948,1.878-1.412,3.112l-0.666,1.741c-0.219,0.613-0.469,1.453-0.66,2.172       c-1.51,6.109-0.651,11.458,0.544,15.557c2.566,8.25,6.471,13.763,10.37,18.998c7.994,10.225,16.656,18.316,26.023,26.029       l6.985-8.706c-7.105-8.708-13.948-18.391-18.837-28.115c-1.932-3.842-6.219-10.878-4.267-15.476       c1.061-2.498,4.326-4.99,6.223-6.733c2.743-2.522,5.638-4.851,8.584-7.082c2.069-1.566,4.195-3.105,6.356-4.621       c1.73,27.998,5.798,60.64,6.628,70.675c4.532,3.718,24.419,7.933,33.644,7.933s29.113-4.216,33.644-7.933       c0.801-9.679,4.61-40.379,6.432-67.668c0.723,0.643,1.428,1.287,2.188,1.923c2.51,2.07,5.178,4.118,8.56,6.026       c0.912,0.477,1.785,0.937,2.735,1.377c1.075,0.436,2.031,0.856,3.216,1.217c2.416,0.67,5.088,1.317,8.576,0.851       c1.607-0.112,3.445-0.754,5.094-1.428c1.519-0.783,3.1-1.717,4.266-2.818c0.604-0.548,1.189-1.121,1.749-1.71       c0.517-0.581,0.922-1.157,1.366-1.754c0.936-1.227,1.465-2.33,2.072-3.494c2.144-4.551,2.719-8.335,3.148-11.851       C375.949,417.712,375.561,411.597,374.976,405.601z" fill="#000000" class="color000 svgShape"/></defs><clipPath id="SVGID_16_"><use overflow="visible" xlink:href="#SVGID_181_"/></clipPath><polygon fill="#fa1a32" points="375.1 371.281 375.235 373.481 208.434 383.728 208.434 371.281" clip-path="url(#SVGID_16_)" class="colorea4606 svgShape"/><polygon fill="#fa1a32" points="375.235 373.481 375.442 376.843 208.434 387.103 208.434 383.728" clip-path="url(#SVGID_16_)" class="colorea4606 svgShape"/><polygon fill="#ea061e" points="375.442 376.843 375.648 380.205 208.434 390.478 208.434 387.103" clip-path="url(#SVGID_16_)" class="colorea4706 svgShape"/><polygon fill="#ea061e" points="375.648 380.205 375.855 383.567 208.434 393.853 208.434 390.478" clip-path="url(#SVGID_16_)" class="colorea4806 svgShape"/><polygon fill="#ea061e" points="375.855 383.567 375.949 385.096 375.949 386.937 208.434 397.228 208.434 393.853" clip-path="url(#SVGID_16_)" class="colorea4906 svgShape"/><polygon fill="#ea061e" points="375.949 390.312 208.434 400.603 208.434 397.228 375.949 386.937" clip-path="url(#SVGID_16_)" class="colorea4a06 svgShape"/><polygon fill="#ea061e" points="375.949 393.686 208.434 403.978 208.434 400.603 375.949 390.312" clip-path="url(#SVGID_16_)" class="colorea4b06 svgShape"/><polygon fill="#ea061e" points="375.949 397.061 208.434 407.353 208.434 403.978 375.949 393.686" clip-path="url(#SVGID_16_)" class="colorea4c06 svgShape"/><polygon fill="#ea061e" points="375.949 400.436 208.434 410.728 208.434 407.353 375.949 397.061" clip-path="url(#SVGID_16_)" class="colorea4d06 svgShape"/><polygon fill="#ea061e" points="375.949 403.811 208.434 414.103 208.434 410.728 375.949 400.436" clip-path="url(#SVGID_16_)" class="colorea4e06 svgShape"/><polygon fill="#ea061e" points="375.949 407.186 208.434 417.477 208.434 414.103 375.949 403.811" clip-path="url(#SVGID_16_)" class="colorea4f06 svgShape"/><polygon fill="#e9061e" points="375.949 410.561 208.434 420.852 208.434 417.477 375.949 407.186" clip-path="url(#SVGID_16_)" class="colore95006 svgShape"/><polygon fill="#e9061e" points="375.949 413.936 208.434 424.227 208.434 420.852 375.949 410.561" clip-path="url(#SVGID_16_)" class="colore95106 svgShape"/><polygon fill="#e9061e" points="375.949 417.311 208.434 427.602 208.434 424.227 375.949 413.936" clip-path="url(#SVGID_16_)" class="colore95206 svgShape"/><polygon fill="#e9061e" points="375.949 420.686 208.434 430.977 208.434 427.602 375.949 417.311" clip-path="url(#SVGID_16_)" class="colore95306 svgShape"/><polygon fill="#e9061e" points="375.949 424.061 208.434 434.352 208.434 430.977 375.949 420.686" clip-path="url(#SVGID_16_)" class="colore95406 svgShape"/><polygon fill="#e9061e" points="375.949 427.436 208.434 437.727 208.434 434.352 375.949 424.061" clip-path="url(#SVGID_16_)" class="colore95506 svgShape"/><polygon fill="#e9061e" points="375.949 430.811 208.434 441.102 208.434 437.727 375.949 427.436" clip-path="url(#SVGID_16_)" class="colore95606 svgShape"/><polygon fill="#e9061e" points="375.949 434.186 208.434 444.477 208.434 441.102 375.949 430.811" clip-path="url(#SVGID_16_)" class="colore95706 svgShape"/><polygon fill="#e9061e" points="375.949 437.561 208.434 447.852 208.434 444.477 375.949 434.186" clip-path="url(#SVGID_16_)" class="colore95806 svgShape"/><polygon fill="#e9071f" points="375.949 440.936 208.434 451.227 208.434 447.852 375.949 437.561" clip-path="url(#SVGID_16_)" class="colore95a07 svgShape"/><polygon fill="#e9071f" points="375.949 444.311 208.434 454.602 208.434 451.227 375.949 440.936" clip-path="url(#SVGID_16_)" class="colore95b07 svgShape"/><polygon fill="#e9071f" points="375.949 447.686 208.434 457.977 208.434 454.602 375.949 444.311" clip-path="url(#SVGID_16_)" class="colore95c07 svgShape"/><polygon fill="#e9071f" points="375.949 451.061 208.434 461.352 208.434 457.977 375.949 447.686" clip-path="url(#SVGID_16_)" class="colore95d07 svgShape"/><polygon fill="#e9071f" points="375.949 454.436 208.434 464.727 208.434 461.352 375.949 451.061" clip-path="url(#SVGID_16_)" class="colore95e07 svgShape"/><polygon fill="#e9071f" points="375.949 457.811 208.434 468.102 208.434 464.727 375.949 454.436" clip-path="url(#SVGID_16_)" class="colore95f07 svgShape"/><polygon fill="#e9071f" points="375.949 461.186 208.434 471.477 208.434 468.102 375.949 457.811" clip-path="url(#SVGID_16_)" class="colore96007 svgShape"/><polygon fill="#e9071f" points="375.949 464.561 208.434 474.852 208.434 471.477 375.949 461.186" clip-path="url(#SVGID_16_)" class="colore96107 svgShape"/><polygon fill="#e9071f" points="375.949 467.936 208.434 478.227 208.434 474.852 375.949 464.561" clip-path="url(#SVGID_16_)" class="colore96207 svgShape"/><polygon fill="#e8071f" points="375.949 471.311 208.434 481.602 208.434 478.227 375.949 467.936" clip-path="url(#SVGID_16_)" class="colore86307 svgShape"/><polygon fill="#e8071f" points="375.949 474.686 208.602 484.966 208.434 482.226 208.434 481.602 375.949 471.311" clip-path="url(#SVGID_16_)" class="colore86407 svgShape"/><polygon fill="#e8071f" points="375.949 478.061 208.809 488.329 208.602 484.966 375.949 474.686" clip-path="url(#SVGID_16_)" class="colore86507 svgShape"/><polygon fill="#e8071f" points="375.949 481.435 209.015 491.691 208.809 488.329 375.949 478.061" clip-path="url(#SVGID_16_)" class="colore86607 svgShape"/><polygon fill="#e8071f" points="375.949 484.81 209.222 495.053 209.015 491.691 375.949 481.435" clip-path="url(#SVGID_16_)" class="colore86707 svgShape"/><polygon fill="#e8071f" points="375.949 488.185 209.429 498.415 209.222 495.053 375.949 484.81" clip-path="url(#SVGID_16_)" class="colore86807 svgShape"/><polygon fill="#e8071f" points="375.949 491.56 209.635 501.778 209.429 498.415 375.949 488.185" clip-path="url(#SVGID_16_)" class="colore86907 svgShape"/><polygon fill="#e8071f" points="375.949 494.935 209.842 505.14 209.635 501.778 375.949 491.56" clip-path="url(#SVGID_16_)" class="colore86a07 svgShape"/><polygon fill="#e8071f" points="375.949 498.31 210.048 508.502 209.842 505.14 375.949 494.935" clip-path="url(#SVGID_16_)" class="colore86b07 svgShape"/><polygon fill="#e8071f" points="375.949 501.685 210.255 511.865 210.048 508.502 375.949 498.31" clip-path="url(#SVGID_16_)" class="colore86c07 svgShape"/><polygon fill="#e8071f" points="210.261 511.962 210.255 511.865 375.949 501.685 375.949 511.962" clip-path="url(#SVGID_16_)" class="colore86c07 svgShape"/></g><g fill="#000000" class="color000 svgShape"><path fill="#ffcfd4" d="M357.411,373.63c0,0-5.828-8.548-6.07-10.933c-0.242-2.384,0.029-6.747-0.37-10.035     c-0.399-3.288,3.244-0.301,3.483,2.619c0.239,2.921,1.435,5.852,3.108,4.919c1.673-0.933,8.593-13.288,10.651-14.427     c2.058-1.138,5.348-1.57,6.353,2.907s2.036,7.777,0.445,10.952s-7.06,9.197-6.448,11.647     C369.176,373.732,361.469,376.27,357.411,373.63z" class="colorffd8cf svgShape"/></g><g fill="#000000" class="color000 svgShape"><path fill="#ffcfd4" d="M259.363,501.812c-2.196-3.621-5.498-6.432-5.498-6.432c-8.177,0.046-6.985,8.705-6.985,8.705     s0.193,0.17,0.481,0.418h-0.001c0.578,1.638,0.872,3.378,1.438,5.017c0.432,1.252,0.92,2.48,1.404,3.71     c0.413,1.05,0.717,2.255,1.3,3.209c0.441,0.72,1.937,2.008,2.431,0.687c0.46-1.232-1.622-5.89-0.89-8.233     c1.886,1.736,2.901,6.757,2.023,9.528c-0.796,2.512-5.71,1.72-5.411,4.487c0.186,1.72,2.748,3.45,4.159,3.461     c2.543,0.02,5.031-1.194,6.438-4.514C261.657,518.536,261.559,505.433,259.363,501.812z" class="colorffd8cf svgShape"/></g><g fill="#000000" class="color000 svgShape"><path fill="#ffcfd4" d="M300.059,365.995c0,0-3.138,12.344-0.738,17.859c2.4,5.515,6.96,8.667,5.28,12.869     c-1.68,4.202-12.24,4.202-16.559,0c-4.32-4.202-7.951-10.439-6.751-15.822c1.2-5.384,0.773-16.151,0.773-16.151L300.059,365.995z     " class="colorffd8cf svgShape"/></g><g fill="#000000" class="color000 svgShape"><path fill="#ffcfd4" d="M305.36,354.397c0,0,3.139-8.847,8.331-6.895c5.192,1.952-0.168,16.645-8.147,13.765L305.36,354.397z" class="colorffd8cf svgShape"/></g><g fill="#000000" class="color000 svgShape"><path fill="#dfb5b9" d="M298.491,380.045c-0.476-6.003,1.568-14.05,1.568-14.05l-17.996-1.246c0,0,0.097,2.463,0.068,5.62     c3.892,6.208,9.469,9.998,14.966,9.818C297.573,380.171,298.035,380.118,298.491,380.045z" class="colordfbdb5 svgShape"/></g><g fill="#000000" class="color000 svgShape"><path fill="#ffcfd4" d="M309.08,349.013c0.427,15.971-5.37,28.619-15.106,28.938c-9.737,0.319-19.726-11.811-20.153-27.783     c-0.428-15.971,7.119-29.177,16.856-29.496c6.57-0.215,13.86,5.772,17.126,14.415C309.377,339.253,308.941,343.82,309.08,349.013     z" class="colorffd8cf svgShape"/></g><g fill="#000000" class="color000 svgShape"><path fill="#003463" d="M282.461,336.526c0,0,10.307,6.488,13.107,4.059c2.8-2.429,2.057-6.004,2.057-6.004     s13.441,8.052,17.762,2.989c4.321-5.063-4.033-8.198-4.033-8.198s4.422-2.091,3.049-9.188c-1.564-8.531-12.748-7.536-16.456-6.21     c0,0,0.251-5.21-3.989-7.246c-4.24-2.036-15.917,7.617-18.227,15.381c0,0-4.351-2.288-6.286,1.951     c-1.936,4.239,1.06,8.384,1.06,8.384s-2.102,1.112-2.142,2.97c-0.077,3.485,3.048,6.286,3.048,14.175     c0,0,4.297,2.246,4.227,8.847c0,0,3-11.135,0.123-17.855C275.761,340.583,282.254,341.418,282.461,336.526z" class="color112e5b svgShape"/></g><g fill="#000000" class="color000 svgShape"><path fill="#ffcfd4" d="M275.447,360.309c-5.402,1.549-9.215-4.594-9.608-9.338c-0.195-2.392,0.479-4.423,2.249-4.965     c3.74-1.118,6.14,3.053,7.234,5.605C275.787,352.681,275.447,360.309,275.447,360.309z" class="colorffd8cf svgShape"/></g><g fill="#000000" class="color000 svgShape"><polygon fill="#003463" points="311.354 338.515 308.911 355.365 308.221 336.244" class="color112e5b svgShape"/></g><g fill="#000000" class="color000 svgShape"><path fill="#2b4e6d" d="M298.482,380.434c0,0-0.457,2.839,3.173,7.561c3.631,4.722,4.551,8.681,2.842,11.879     s-3.727,22.793,0.83,41.748c4.558,18.955,9.721,67.545,3.526,77.15c-6.196,9.605,14.973,4.52,22.717-1.695     c14.598-11.23,2.581-77.405,0-96.616c-1.448-10.772-2.246-21.575-2.668-28.988c-0.33-5.795-4.357-10.518-9.625-11.213     C313.352,379.479,305.476,379.002,298.482,380.434z" class="color2b456d svgShape"/></g><g fill="#000000" class="color000 svgShape"><path fill="#2b4e6d" d="M281.29,380.9c0,0,5.052,8.446,7.197,16.211c4.252,8.866-0.681,41.463-2.159,54.703     c-1,8.959-2.72,61.78,0.353,68.872c3.074,7.093-24.471,7.922-31.276,3.429c-1.472-6.989-5.664-71.707-3.48-90.761     c2.184-19.054,5.251-45.259,9.961-48.539C266.597,381.534,277.482,378.87,281.29,380.9z" class="color2b456d svgShape"/></g><g fill="#000000" class="color000 svgShape"><path fill="#ffffff" d="M319.037,493.713c0,0,10.206,0.825,15.157-6.079c0.751,7.736-0.259,18.978-5.309,21.785     C323.835,512.226,318.28,503.383,319.037,493.713z" class="colorfff svgShape"/></g><g fill="#000000" class="color000 svgShape"><path fill="#ffffff" d="M260.597,497.454c0.515-0.225,8.861,2.408,17.346-0.977c0.515,5.074,1.188,19.883-7.68,19.922     C259.961,516.445,260.597,497.454,260.597,497.454z" class="colorfff svgShape"/></g></g></svg>